<?xml version="1.0" encoding="utf-8" standalone="no"?>
<!DOCTYPE svg PUBLIC "-//W3C//DTD SVG 1.1//EN"
  "http://www.w3.org/Graphics/SVG/1.1/DTD/svg11.dtd">
<!-- Created with matplotlib (http://matplotlib.org/) -->
<svg height="216pt" version="1.1" viewBox="0 0 216 216" width="216pt" xmlns="http://www.w3.org/2000/svg" xmlns:xlink="http://www.w3.org/1999/xlink">
 <defs>
  <style type="text/css">
*{stroke-linecap:butt;stroke-linejoin:round;stroke-miterlimit:100000;}
  </style>
 </defs>
 <g id="figure_1">
  <g id="patch_1">
   <path d="M 0 216 
L 216 216 
L 216 0 
L 0 0 
L 0 216 
z
" style="fill:none;"/>
  </g>
  <g id="axes_1">
   <g id="patch_2">
    <path clip-path="url(#p5bb1127114)" d="M 43.2 129.6 
C 48.928387 129.6 54.422925 127.324088 58.473506 123.273506 
C 62.524088 119.222925 64.8 113.728387 64.8 108 
C 64.8 102.271613 62.524088 96.777075 58.473506 92.726494 
C 54.422925 88.675912 48.928387 86.4 43.2 86.4 
C 37.471613 86.4 31.977075 88.675912 27.926494 92.726494 
C 23.875912 96.777075 21.6 102.271613 21.6 108 
C 21.6 113.728387 23.875912 119.222925 27.926494 123.273506 
C 31.977075 127.324088 37.471613 129.6 43.2 129.6 
z
" style="fill:#0000ff;opacity:0.3;stroke:#0000ff;stroke-linejoin:miter;"/>
   </g>
   <g id="patch_3">
    <path clip-path="url(#p5bb1127114)" d="M 2.653512 83.305356 
Q 9.029732 88.610394 16.376285 92.230385 
L 17.370787 90.212102 
Q 19.711187 93.461375 22.607475 96.533335 
Q 18.411953 96.990153 14.055779 96.939711 
L 15.050282 94.921428 
Q 7.384533 91.144155 0.734769 85.611527 
L 2.653512 83.305356 
z
" style="fill:#0000ff;opacity:0.5;stroke:#0000ff;stroke-linecap:round;"/>
   </g>
   <g id="patch_4">
    <path clip-path="url(#p5bb1127114)" d="M 23.139628 120.87782 
Q 18.439125 122.6552 14.208419 125.242688 
L 15.382362 127.162157 
Q 11.434904 127.368129 7.314541 128.305068 
Q 9.047539 124.453306 11.469221 120.763928 
L 12.643163 122.683397 
Q 17.114373 119.948817 22.078572 118.071726 
L 23.139628 120.87782 
z
" style="fill:#0000ff;opacity:0.5;stroke:#0000ff;stroke-linecap:round;"/>
   </g>
   <g id="patch_5">
    <path clip-path="url(#p5bb1127114)" d="M 87.975699 67.971538 
C 93.704086 67.971538 99.198624 65.695625 103.249205 61.645044 
C 107.299787 57.594463 109.575699 52.099925 109.575699 46.371538 
C 109.575699 40.643151 107.299787 35.148613 103.249205 31.098031 
C 99.198624 27.04745 93.704086 24.771538 87.975699 24.771538 
C 82.247312 24.771538 76.752774 27.04745 72.702192 31.098031 
C 68.651611 35.148613 66.375699 40.643151 66.375699 46.371538 
C 66.375699 52.099925 68.651611 57.594463 72.702192 61.645044 
C 76.752774 65.695625 82.247312 67.971538 87.975699 67.971538 
z
" style="fill:#0000ff;opacity:0.3;stroke:#0000ff;stroke-linejoin:miter;"/>
   </g>
   <g id="patch_6">
    <path clip-path="url(#p5bb1127114)" d="M 98.932147 0.178471 
Q 95.857117 7.881964 94.68451 15.98759 
L 96.911329 16.309734 
Q 94.544311 19.539667 92.517705 23.243489 
Q 90.786757 19.394474 89.488599 15.235919 
L 91.715418 15.558064 
Q 92.938972 7.100262 96.145924 -0.933716 
L 98.932147 0.178471 
z
" style="fill:#0000ff;opacity:0.5;stroke:#0000ff;stroke-linecap:round;"/>
   </g>
   <g id="patch_7">
    <path clip-path="url(#p5bb1127114)" d="M 69.529168 31.272455 
Q 66.386244 27.351252 62.618037 24.12719 
L 61.155281 25.836824 
Q 59.739559 22.146217 57.575214 18.517049 
Q 61.773984 18.974969 66.031132 20.138045 
L 64.568377 21.847678 
Q 68.550797 25.255019 71.870038 29.396201 
L 69.529168 31.272455 
z
" style="fill:#0000ff;opacity:0.5;stroke:#0000ff;stroke-linecap:round;"/>
   </g>
   <g id="patch_8">
    <path clip-path="url(#p5bb1127114)" d="M 160.424301 91.511516 
C 166.152688 91.511516 171.647226 89.235603 175.697808 85.185022 
C 179.748389 81.134441 182.024301 75.639903 182.024301 69.911516 
C 182.024301 64.183129 179.748389 58.68859 175.697808 54.638009 
C 171.647226 50.587428 166.152688 48.311516 160.424301 48.311516 
C 154.695914 48.311516 149.201376 50.587428 145.150795 54.638009 
C 141.100213 58.68859 138.824301 64.183129 138.824301 69.911516 
C 138.824301 75.639903 141.100213 81.134441 145.150795 85.185022 
C 149.201376 89.235603 154.695914 91.511516 160.424301 91.511516 
z
" style="fill:#0000ff;opacity:0.3;stroke:#0000ff;stroke-linejoin:miter;"/>
   </g>
   <g id="patch_9">
    <path clip-path="url(#p5bb1127114)" d="M 169.084091 47.70195 
Q 171.84216 43.501133 173.743985 38.921064 
L 171.66601 38.058207 
Q 174.738503 35.571316 177.521228 32.391427 
Q 178.383212 36.526199 178.592592 40.934397 
L 176.514617 40.07154 
Q 174.504679 44.911973 171.591883 49.348454 
L 169.084091 47.70195 
z
" style="fill:#0000ff;opacity:0.5;stroke:#0000ff;stroke-linecap:round;"/>
   </g>
   <g id="patch_10">
    <path clip-path="url(#p5bb1127114)" d="M 160.424301 167.688484 
C 166.152688 167.688484 171.647226 165.412572 175.697808 161.361991 
C 179.748389 157.31141 182.024301 151.816871 182.024301 146.088484 
C 182.024301 140.360097 179.748389 134.865559 175.697808 130.814978 
C 171.647226 126.764397 166.152688 124.488484 160.424301 124.488484 
C 154.695914 124.488484 149.201376 126.764397 145.150795 130.814978 
C 141.100213 134.865559 138.824301 140.360097 138.824301 146.088484 
C 138.824301 151.816871 141.100213 157.31141 145.150795 161.361991 
C 149.201376 165.412572 154.695914 167.688484 160.424301 167.688484 
z
" style="fill:#0000ff;opacity:0.3;stroke:#0000ff;stroke-linejoin:miter;"/>
   </g>
   <g id="patch_11">
    <path clip-path="url(#p5bb1127114)" d="M 184.222876 147.4613 
Q 189.07038 148.786256 194.013981 149.17968 
L 194.192477 146.936771 
Q 197.507104 149.090394 201.391267 150.754282 
Q 197.725233 152.851793 193.597489 154.413133 
L 193.775986 152.170225 
Q 188.551355 151.754436 183.431907 150.35515 
L 184.222876 147.4613 
z
" style="fill:#0000ff;opacity:0.5;stroke:#0000ff;stroke-linecap:round;"/>
   </g>
   <g id="patch_12">
    <path clip-path="url(#p5bb1127114)" d="M 87.975699 191.228462 
C 93.704086 191.228462 99.198624 188.95255 103.249205 184.901969 
C 107.299787 180.851387 109.575699 175.356849 109.575699 169.628462 
C 109.575699 163.900075 107.299787 158.405537 103.249205 154.354956 
C 99.198624 150.304375 93.704086 148.028462 87.975699 148.028462 
C 82.247312 148.028462 76.752774 150.304375 72.702192 154.354956 
C 68.651611 158.405537 66.375699 163.900075 66.375699 169.628462 
C 66.375699 175.356849 68.651611 180.851387 72.702192 184.901969 
C 76.752774 188.95255 82.247312 191.228462 87.975699 191.228462 
z
" style="fill:#0000ff;opacity:0.3;stroke:#0000ff;stroke-linejoin:miter;"/>
   </g>
   <g id="patch_13">
    <path clip-path="url(#p5bb1127114)" d="M 109.694654 55.909176 
Q 119.35373 61.539029 130.020062 64.426897 
L 130.60807 62.25509 
Q 133.562665 65.001214 136.946928 67.518504 
Q 132.899203 68.699253 128.648042 69.494447 
L 129.236051 67.32264 
Q 118.18626 64.330951 108.183964 58.501051 
L 109.694654 55.909176 
z
" style="fill:#0000ff;opacity:0.5;stroke:#0000ff;stroke-linecap:round;"/>
   </g>
   <g id="patch_14">
    <path clip-path="url(#p5bb1127114)" d="M 162.783608 122.485238 
Q 165.153097 111.559191 164.603545 100.522506 
L 162.35633 100.634402 
Q 164.055029 96.975816 165.403319 92.979306 
Q 167.777094 96.464049 169.847049 100.261415 
L 167.599833 100.373311 
Q 168.169142 111.80677 165.715456 123.121057 
L 162.783608 122.485238 
z
" style="fill:#0000ff;opacity:0.5;stroke:#0000ff;stroke-linecap:round;"/>
   </g>
   <g id="patch_15">
    <path clip-path="url(#p5bb1127114)" d="M 99.972508 66.81059 
Q 114.638714 98.658289 138.947495 123.626216 
L 140.559623 122.056648 
Q 141.77722 125.995958 143.199198 129.9517 
Q 139.184528 128.706936 135.185863 127.288541 
L 136.797991 125.718973 
Q 112.129476 100.381557 97.247566 68.065455 
L 99.972508 66.81059 
z
" style="fill:#0000ff;opacity:0.5;stroke:#0000ff;stroke-linecap:round;"/>
   </g>
   <g id="patch_16">
    <path clip-path="url(#p5bb1127114)" d="M 158.064995 93.514762 
Q 155.695505 104.440809 156.245057 115.477494 
L 158.492273 115.365598 
Q 156.793574 119.024184 155.445283 123.020694 
Q 153.071509 119.535951 151.001553 115.738585 
L 153.248769 115.626689 
Q 152.679461 104.19323 155.133146 92.878943 
L 158.064995 93.514762 
z
" style="fill:#0000ff;opacity:0.5;stroke:#0000ff;stroke-linecap:round;"/>
   </g>
   <g id="patch_17">
    <path clip-path="url(#p5bb1127114)" d="M 64.919396 117.483993 
Q 95.504214 134.628743 129.84621 140.539878 
L 130.227879 138.322485 
Q 133.528405 140.793768 137.003936 143.158213 
Q 133.024346 144.510941 128.955647 145.713793 
L 129.337317 143.4964 
Q 94.48711 137.497789 63.452463 120.100881 
L 64.919396 117.483993 
z
" style="fill:#0000ff;opacity:0.5;stroke:#0000ff;stroke-linecap:round;"/>
   </g>
   <g id="patch_18">
    <path clip-path="url(#p5bb1127114)" d="M 66.345912 102.906371 
Q 101.16698 98.79946 132.424716 83.39595 
L 131.430143 81.377702 
Q 135.552908 81.437012 139.754458 81.307022 
Q 137.330015 84.740546 134.745387 88.105195 
L 133.750814 86.086947 
Q 102.030509 101.718406 66.697306 105.88572 
L 66.345912 102.906371 
z
" style="fill:#0000ff;opacity:0.5;stroke:#0000ff;stroke-linecap:round;"/>
   </g>
   <g id="text_1">
    <!-- $C_{1}$ -->
    <defs>
     <path d="M 26.59375 63.3125 
C 26.59375 65.40625 26.5 65.5 25.09375 65.5 
C 21.203125 61.1875 15.296875 59.796875 9.703125 59.796875 
C 9.40625 59.796875 8.90625 59.796875 8.796875 59.609375 
C 8.703125 59.390625 8.703125 59.171875 8.703125 57 
C 11.796875 57 17 57.59375 21 59.984375 
L 21 7.203125 
C 21 3.6875 20.796875 2.5 12.203125 2.5 
L 9.203125 2.5 
L 9.203125 0 
C 14 0 19 0 23.796875 0 
C 28.59375 0 33.59375 0 38.40625 0 
L 38.40625 2.5 
L 35.40625 2.5 
C 26.796875 2.5 26.59375 3.59375 26.59375 7.15625 
z
" id="CMR17-49"/>
     <path d="M 74.703125 69.109375 
C 74.703125 70 74 70 73.796875 70 
C 73.59375 70 73.203125 70 72.40625 69 
L 65.5 60.65625 
C 62 66.625 56.5 70 49 70 
C 27.40625 70 5 48.25 5 24.921875 
C 5 8.328125 16.703125 -2 31.296875 -2 
C 39.296875 -2 46.296875 1.375 52.09375 6.25 
C 60.796875 13.484375 63.40625 23.140625 63.40625 23.921875 
C 63.40625 24.8125 62.59375 24.8125 62.296875 24.8125 
C 61.40625 24.8125 61.296875 24.21875 61.09375 23.8125 
C 56.5 8.34375 43 0.890625 33 0.890625 
C 22.40625 0.890625 13.203125 7.640625 13.203125 21.734375 
C 13.203125 24.921875 14.203125 42.1875 25.5 55.1875 
C 31 61.546875 40.40625 67.109375 49.90625 67.109375 
C 60.90625 67.109375 65.796875 58.078125 65.796875 47.9375 
C 65.796875 45.359375 65.5 43.1875 65.5 42.78125 
C 65.5 41.890625 66.5 41.890625 66.796875 41.890625 
C 67.90625 41.890625 68 41.984375 68.40625 43.765625 
z
" id="CMMI12-67"/>
    </defs>
    <g transform="translate(34.8271014944 112.399471829)scale(0.16 -0.16)">
     <use transform="translate(0.0 14.943914544092467)scale(0.9962640099626402)" xlink:href="#CMMI12-67"/>
     <use transform="translate(69.79203657670455 0.0)scale(0.6973817666173724)" xlink:href="#CMR17-49"/>
    </g>
   </g>
   <g id="text_2">
    <!-- $C_{2}$ -->
    <defs>
     <path d="M 41.703125 15.453125 
L 39.90625 15.453125 
C 38.90625 8.375 38.09375 7.171875 37.703125 6.5625 
C 37.203125 5.765625 30 5.765625 28.59375 5.765625 
L 9.40625 5.765625 
C 13 9.671875 20 16.75 28.5 24.953125 
C 34.59375 30.734375 41.703125 37.53125 41.703125 47.421875 
C 41.703125 59.21875 32.296875 66 21.796875 66 
C 10.796875 66 4.09375 56.3125 4.09375 47.34375 
C 4.09375 43.4375 7 42.9375 8.203125 42.9375 
C 9.203125 42.9375 12.203125 43.546875 12.203125 47.03125 
C 12.203125 50.109375 9.59375 51 8.203125 51 
C 7.59375 51 7 50.90625 6.59375 50.703125 
C 8.5 59.21875 14.296875 63.40625 20.40625 63.40625 
C 29.09375 63.40625 34.796875 56.515625 34.796875 47.421875 
C 34.796875 38.734375 29.703125 31.25 24 24.75 
L 4.09375 2.28125 
L 4.09375 0 
L 39.296875 0 
z
" id="CMR17-50"/>
    </defs>
    <g transform="translate(79.6028002589 50.7710095733)scale(0.16 -0.16)">
     <use transform="translate(0.0 14.943914544092467)scale(0.9962640099626402)" xlink:href="#CMMI12-67"/>
     <use transform="translate(69.79203657670455 0.0)scale(0.6973817666173724)" xlink:href="#CMR17-50"/>
    </g>
   </g>
   <g id="text_3">
    <!-- $C_{3}$ -->
    <defs>
     <path d="M 22.09375 33.703125 
C 31 33.703125 34.90625 25.96875 34.90625 17.03125 
C 34.90625 5 28.5 0.390625 22.703125 0.390625 
C 17.40625 0.390625 8.796875 3.03125 6.09375 10.828125 
C 6.59375 10.625 7.09375 10.625 7.59375 10.625 
C 10 10.625 11.796875 12.21875 11.796875 14.8125 
C 11.796875 17.703125 9.59375 19 7.59375 19 
C 5.90625 19 3.296875 18.203125 3.296875 14.46875 
C 3.296875 5.234375 12.296875 -2 22.90625 -2 
C 34 -2 42.5 6.71875 42.5 16.953125 
C 42.5 26.671875 34.5 33.6875 25 34.796875 
C 32.59375 36.375 39.90625 43.0625 39.90625 52.015625 
C 39.90625 59.6875 32 65.296875 23 65.296875 
C 13.90625 65.296875 5.90625 59.828125 5.90625 52.015625 
C 5.90625 48.59375 8.5 48 9.796875 48 
C 11.90625 48 13.703125 49.296875 13.703125 51.890625 
C 13.703125 54.46875 11.90625 55.765625 9.796875 55.765625 
C 9.40625 55.765625 8.90625 55.765625 8.5 55.5625 
C 11.40625 61.859375 19.296875 63 22.796875 63 
C 26.296875 63 32.90625 61.328125 32.90625 51.875 
C 32.90625 49.109375 32.5 44.1875 29.09375 39.84375 
C 26.09375 36 22.703125 36 19.40625 35.59375 
C 18.90625 35.59375 16.59375 35.59375 16.203125 35.59375 
C 15.5 35.484375 15.09375 35.390625 15.09375 34.59375 
C 15.09375 33.8125 15.203125 33.703125 17.203125 33.703125 
z
" id="CMR17-51"/>
    </defs>
    <g transform="translate(152.05140273 74.3109874807)scale(0.16 -0.16)">
     <use transform="translate(0.0 14.943914544092467)scale(0.9962640099626402)" xlink:href="#CMMI12-67"/>
     <use transform="translate(69.79203657670455 0.0)scale(0.6973817666173724)" xlink:href="#CMR17-51"/>
    </g>
   </g>
   <g id="text_4">
    <!-- $C_{4}$ -->
    <defs>
     <path d="M 33.59375 64.328125 
C 33.59375 66.40625 33.5 66.5 31.703125 66.5 
L 2 19.59375 
L 2 17 
L 27.796875 17 
L 27.796875 7.140625 
C 27.796875 3.5 27.59375 2.5 20.59375 2.5 
L 18.703125 2.5 
L 18.703125 0 
C 21.90625 0 27.296875 0 30.703125 0 
C 34.09375 0 39.5 0 42.703125 0 
L 42.703125 2.5 
L 40.796875 2.5 
C 33.796875 2.5 33.59375 3.5 33.59375 7.140625 
L 33.59375 17 
L 43.796875 17 
L 43.796875 19.59375 
L 33.59375 19.59375 
z
M 28.09375 57.765625 
L 28.09375 19.59375 
L 4 19.59375 
z
" id="CMR17-52"/>
    </defs>
    <g transform="translate(152.05140273 150.487956178)scale(0.16 -0.16)">
     <use transform="translate(0.0 14.943914544092467)scale(0.9962640099626402)" xlink:href="#CMMI12-67"/>
     <use transform="translate(69.79203657670455 0.0)scale(0.6973817666173724)" xlink:href="#CMR17-52"/>
    </g>
   </g>
   <g id="text_5">
    <!-- $C_{5}$ -->
    <defs>
     <path d="M 11.40625 57.6875 
C 12.40625 57.28125 16.5 56 20.703125 56 
C 30 56 35.09375 61.015625 38 63.921875 
C 38 64.734375 38 65.25 37.40625 65.25 
C 37.296875 65.25 37.09375 65.25 36.296875 64.828125 
C 32.796875 63.3125 28.703125 62.078125 23.703125 62.078125 
C 20.703125 62.078125 16.203125 62.5 11.296875 64.734375 
C 10.203125 65.25 10 65.25 9.90625 65.25 
C 9.40625 65.25 9.296875 65.140625 9.296875 63.15625 
L 9.296875 34.28125 
C 9.296875 32.5 9.296875 32 10.296875 32 
C 10.796875 32 11 32.203125 11.5 32.90625 
C 14.703125 37.484375 19.09375 39.40625 24.09375 39.40625 
C 27.59375 39.40625 35.09375 37.21875 35.09375 20.140625 
C 35.09375 16.953125 35.09375 11.171875 32.09375 6.578125 
C 29.59375 2.484375 25.703125 0.390625 21.40625 0.390625 
C 14.796875 0.390625 8.09375 5 6.296875 12.71875 
C 6.703125 12.609375 7.5 12.421875 7.90625 12.421875 
C 9.203125 12.421875 11.703125 13.125 11.703125 16.21875 
C 11.703125 18.90625 9.796875 20 7.90625 20 
C 5.59375 20 4.09375 18.59375 4.09375 15.796875 
C 4.09375 7.09375 11 -2 21.59375 -2 
C 31.90625 -2 41.703125 6.875 41.703125 19.75 
C 41.703125 31.71875 33.90625 41 24.203125 41 
C 19.09375 41 14.796875 39.09375 11.40625 35.453125 
z
" id="CMR17-53"/>
    </defs>
    <g transform="translate(79.6028002589 174.027934085)scale(0.16 -0.16)">
     <use transform="translate(0.0 14.943914544092467)scale(0.9962640099626402)" xlink:href="#CMMI12-67"/>
     <use transform="translate(69.79203657670455 0.0)scale(0.6973817666173724)" xlink:href="#CMR17-53"/>
    </g>
   </g>
  </g>
 </g>
 <defs>
  <clipPath id="p5bb1127114">
   <rect height="216.0" width="216.0" x="0.0" y="0.0"/>
  </clipPath>
 </defs>
</svg>
